<svg xmlns="http://www.w3.org/2000/svg" width="480" height="117" viewBox="-100 -845 3946 959" fill="none" role="img" aria-label="Thirai">
  <style>
    .wm{fill:#101615}
    @media (prefers-color-scheme:dark){.wm{fill:#F1F5F3}}
  </style>
  <path d="M0 0 L0 -660 L554 -330 Z" fill="#E8A33D"/>
  <path class="wm" d="M954 0V-660H1116V0ZM769 -525V-660H1301V-525ZM1371 0V-320V-714H1533V-559Q1533 -538 1531.0 -513.0Q1529 -488 1525.0 -461.0Q1521 -434 1517.5 -408.0Q1514 -382 1509 -359H1529Q1542 -417 1563.0 -458.0Q1584 -499 1619.5 -520.5Q1655 -542 1708 -542Q1799 -542 1844.0 -478.0Q1889 -414 1889 -281V0H1727V-260Q1727 -334 1706.0 -370.5Q1685 -407 1641 -407Q1605 -407 1581.0 -384.0Q1557 -361 1545.0 -320.0Q1533 -279 1533 -223V0ZM1992 0V-528H2154V0ZM2073 -592Q2027 -592 2002.5 -611.5Q1978 -631 1978 -668Q1978 -706 2002.5 -725.5Q2027 -745 2073 -745Q2120 -745 2144.5 -725.0Q2169 -705 2169 -668Q2169 -632 2144.5 -612.0Q2120 -592 2073 -592ZM2264 0V-256V-528H2398L2400 -341H2417Q2424 -414 2443.0 -457.5Q2462 -501 2495.5 -520.5Q2529 -540 2578 -540Q2589 -540 2601.0 -538.0Q2613 -536 2628 -532L2622 -358Q2604 -367 2584.5 -370.5Q2565 -374 2550 -374Q2513 -374 2486.5 -358.5Q2460 -343 2445.0 -311.0Q2430 -279 2426 -231V0ZM2826 14Q2783 14 2748.5 -2.5Q2714 -19 2694.0 -52.0Q2674 -85 2674 -134Q2674 -180 2691.5 -210.0Q2709 -240 2742.5 -258.0Q2776 -276 2820.5 -286.5Q2865 -297 2919 -306Q2954 -312 2975.5 -317.0Q2997 -322 3007.0 -331.5Q3017 -341 3017 -359Q3017 -385 2998.0 -402.0Q2979 -419 2940 -419Q2914 -419 2891.0 -409.5Q2868 -400 2852.5 -380.5Q2837 -361 2832 -331L2689 -365Q2699 -413 2721.5 -446.5Q2744 -480 2778.0 -501.5Q2812 -523 2854.5 -532.5Q2897 -542 2945 -542Q3024 -542 3075.0 -515.5Q3126 -489 3150.5 -435.0Q3175 -381 3175 -298V-213Q3175 -178 3176.0 -142.5Q3177 -107 3178.5 -71.5Q3180 -36 3183 0H3042Q3039 -27 3036.0 -60.5Q3033 -94 3032 -130H3016Q3005 -90 2978.5 -57.0Q2952 -24 2913.5 -5.0Q2875 14 2826 14ZM2897 -101Q2915 -101 2933.5 -107.5Q2952 -114 2969.5 -126.5Q2987 -139 3000.0 -158.5Q3013 -178 3019 -203L3017 -267L3040 -265Q3024 -252 3002.5 -245.0Q2981 -238 2957.5 -233.5Q2934 -229 2911.0 -224.5Q2888 -220 2870.0 -213.0Q2852 -206 2841.5 -194.0Q2831 -182 2831 -161Q2831 -133 2849.5 -117.0Q2868 -101 2897 -101ZM3279 0V-528H3441V0ZM3360 -592Q3314 -592 3289.5 -611.5Q3265 -631 3265 -668Q3265 -706 3289.5 -725.5Q3314 -745 3360 -745Q3407 -745 3431.5 -725.0Q3456 -705 3456 -668Q3456 -632 3431.5 -612.0Q3407 -592 3360 -592Z"/>
  <path d="M3620 13Q3568 13 3542.5 -9.0Q3517 -31 3517 -77Q3517 -124 3542.5 -146.0Q3568 -168 3620 -168Q3673 -168 3699.0 -146.0Q3725 -124 3725 -77Q3725 13 3620 13Z" fill="#E8A33D"/>
</svg>
